<?xml version="1.0" encoding="UTF-8" standalone="no"?><!-- Generator: Gravit.io --><svg xmlns="http://www.w3.org/2000/svg" xmlns:xlink="http://www.w3.org/1999/xlink" style="isolation:isolate" viewBox="0 0 490 490" width="490pt" height="490pt"><defs><clipPath id="_clipPath_fJlrjJeY5gBBshnnBkUnMcwKAZblBp6r"><rect width="490" height="490"/></clipPath></defs><g clip-path="url(#_clipPath_fJlrjJeY5gBBshnnBkUnMcwKAZblBp6r)"><g><path d=" M 490 268.656 L 402.067 169.375 L 320.584 169.375 L 320.584 130.101 L 223.375 130.101 C 204.686 90.152 164.113 62.406 117.176 62.406 C 52.567 62.406 0 114.973 0 179.583 C 0 224.439 25.342 263.483 62.456 283.169 L 62.456 375.684 L 107.026 375.684 C 108.22 404.508 132.033 427.593 161.145 427.593 C 190.257 427.593 214.07 404.508 215.264 375.684 L 337.191 375.684 C 338.385 404.508 362.199 427.593 391.311 427.593 C 420.422 427.593 444.236 404.508 445.43 375.684 L 490 375.684 L 490 268.656 Z  M 20.417 179.583 C 20.417 126.228 63.822 82.822 117.177 82.822 C 170.531 82.822 213.937 126.228 213.937 179.583 C 213.937 232.937 170.531 276.343 117.177 276.343 C 63.821 276.343 20.417 232.937 20.417 179.583 Z  M 161.145 407.177 C 142.528 407.177 127.385 392.034 127.385 373.417 C 127.385 354.8 142.528 339.657 161.145 339.657 C 179.762 339.657 194.905 354.8 194.905 373.417 C 194.905 392.034 179.762 407.177 161.145 407.177 Z  M 300.168 355.268 L 212.184 355.268 C 204.704 334.296 184.653 319.241 161.145 319.241 C 137.637 319.241 117.586 334.297 110.106 355.268 L 82.872 355.268 L 82.872 291.632 C 93.727 294.962 105.245 296.76 117.176 296.76 C 181.786 296.76 234.352 244.193 234.352 179.584 C 234.352 169.555 233.083 159.816 230.702 150.519 L 300.167 150.519 L 300.167 355.268 L 300.168 355.268 Z  M 391.311 407.177 C 372.693 407.177 357.55 392.034 357.55 373.417 C 357.55 354.8 372.693 339.657 391.311 339.657 C 409.928 339.657 425.071 354.8 425.071 373.417 C 425.071 392.034 409.928 407.177 391.311 407.177 Z  M 469.583 355.268 L 442.35 355.268 C 434.87 334.296 414.818 319.241 391.311 319.241 C 367.803 319.241 347.751 334.297 340.271 355.268 L 320.585 355.268 L 320.585 189.792 L 392.876 189.792 L 469.583 276.403 L 469.583 355.268 Z " fill="rgb(20,55,86)"/><path d=" M 162.969 194.442 L 127.385 173.716 L 127.385 105.553 L 106.968 105.553 L 106.968 185.45 L 152.691 212.087 L 162.969 194.442 Z " fill="rgb(33,116,212)"/></g></g></svg>