<?xml version="1.0" encoding="UTF-8" standalone="no"?><!-- Generator: Gravit.io --><svg xmlns="http://www.w3.org/2000/svg" xmlns:xlink="http://www.w3.org/1999/xlink" style="isolation:isolate" viewBox="0 0 256 256" width="256pt" height="256pt"><defs><clipPath id="_clipPath_KagG1UU5NjUv6CJVl6QoOhQNvLmRNft8"><rect width="256" height="256"/></clipPath></defs><g clip-path="url(#_clipPath_KagG1UU5NjUv6CJVl6QoOhQNvLmRNft8)"><path d=" M 58 18 L 58 26 L 45.5 26 C 31.4 26 27.7 27 22.2 32.3 C 15 39.2 15.5 32.1 15.2 127.8 C 15 186 15.3 215.4 16 218 C 17.5 223.6 22.8 230.1 28 232.7 C 32.4 235 33 235 69.7 235 L 107 235 L 107 229.6 L 107 224.1 L 70.8 223.8 C 32.3 223.5 32.1 223.5 28.9 218.6 C 27.7 216.9 27.5 205.5 27.2 153.7 L 26.9 91 L 122.5 91 L 218 91 L 218 96.5 L 218 102 L 224.1 102 L 230.1 102 L 229.8 72.2 C 229.5 44 229.4 42.3 227.3 38.5 C 221.9 28.5 216.4 26 199.5 26 L 187 26 L 187 18 L 187 10 L 181 10 L 175 10 L 175 18 L 175 26 L 122.5 26 L 70 26 L 70 18 L 70 10 L 64 10 L 58 10 L 58 18 Z  M 58 46 L 58 54 L 64 54 L 70 54 L 70 46 L 70 38 L 122.5 38 L 175 38 L 175 46 L 175 54 L 181 54 L 187 54 L 187 46 L 187 38 L 199.1 38 C 205.7 38 212 38.5 213.1 39 C 217.2 41.3 218 45 218 62.5 L 218 79 L 122.5 79 L 27 79 L 27 63.5 C 27 39.4 28.1 38 46.2 38 L 58 38 L 58 46 Z " fill="rgb(20,55,86)"/><path d=" M 42 133 L 42 160 L 69 160 L 96 160 L 96 133 L 96 106 L 69 106 L 42 106 L 42 133 Z  M 85 133.5 L 85 149 L 69.5 149 L 54 149 L 54 133.5 L 54 118 L 69.5 118 L 85 118 L 85 133.5 Z " fill="rgb(33,116,212)"/><path d=" M 170.1 112.1 C 150.7 115.1 131.6 128.1 121.1 145.4 C 103.2 175.1 110.8 215.9 138.2 236.5 C 151.7 246.6 164.7 251 181.3 251 C 193.7 251 201.8 249.1 213 243.7 C 219.9 240.3 223.2 237.9 230.5 230.5 C 237.9 223.2 240.3 219.9 243.7 213 C 249.1 201.8 251 193.7 251 181.3 C 251 164.7 246.6 151.7 236.5 138.2 C 227.9 126.8 213.6 117.3 199.4 113.6 C 191.5 111.6 178.1 110.9 170.1 112.1 Z  M 195 125.2 C 215.2 129.9 232.7 147.8 237.6 168.8 C 239.7 177.6 239 191.3 236.1 199.4 C 230.1 216.5 216.5 230 199.4 236.1 C 191.1 239.1 176.6 239.8 168 237.5 C 130.1 227.7 111.9 184.9 131.7 152.2 C 145.3 129.8 170 119.3 195 125.2 Z " fill="rgb(20,55,86)"/><path d=" M 175 158.3 L 175 183.5 L 190.8 199.3 C 199.4 207.9 207 215 207.6 215 C 208.1 215 210.3 213.3 212.3 211.2 L 216 207.4 L 201.5 193 L 187 178.5 L 187 155.8 L 187 133 L 181 133 L 175 133 L 175 158.3 Z " fill="rgb(33,116,212)"/></g></svg>