<?xml version="1.0" encoding="UTF-8" standalone="no"?><!-- Generator: Gravit.io --><svg xmlns="http://www.w3.org/2000/svg" xmlns:xlink="http://www.w3.org/1999/xlink" style="isolation:isolate" viewBox="0 0 230.403 230.403" width="230.403pt" height="230.403pt"><defs><clipPath id="_clipPath_Ic269HJSH47TUTR8nMTZaGIDWmNJT68M"><rect width="230.403" height="230.403"/></clipPath></defs><g clip-path="url(#_clipPath_Ic269HJSH47TUTR8nMTZaGIDWmNJT68M)"><g><g><path d=" M 213.454 91.714 C 210.679 91.714 208.436 93.962 208.436 96.732 L 208.436 171.629 L 157.872 214.535 L 157.872 142.483 C 157.872 139.713 155.629 137.465 152.854 137.465 C 150.079 137.465 147.836 139.713 147.836 142.483 L 147.836 220.361 L 82.568 220.361 L 82.568 61.669 C 82.568 61.599 82.528 61.544 82.528 61.473 C 82.518 61.112 82.413 60.775 82.322 60.424 C 82.242 60.133 82.207 59.837 82.076 59.571 C 81.961 59.31 81.765 59.089 81.584 58.848 C 81.378 58.547 81.183 58.246 80.917 58 C 80.867 57.955 80.847 57.89 80.792 57.844 L 20.192 6.422 C 18.702 5.157 16.604 4.876 14.843 5.694 C 13.067 6.517 11.932 8.293 11.932 10.251 L 11.932 173.956 C 11.932 175.431 12.579 176.826 13.698 177.785 L 74.308 229.207 C 74.544 229.413 74.83 229.513 75.091 229.664 C 75.307 229.789 75.492 229.94 75.728 230.03 C 76.315 230.261 76.932 230.401 77.55 230.401 L 152.854 230.401 C 153.481 230.401 154.099 230.266 154.686 230.03 C 154.912 229.94 155.097 229.789 155.313 229.669 C 155.579 229.513 155.86 229.408 156.106 229.207 L 216.706 177.78 C 217.825 176.827 218.472 175.426 218.472 173.951 L 218.472 96.732 C 218.472 93.957 216.229 91.714 213.454 91.714 L 213.454 91.714 Z  M 21.967 21.087 L 72.531 63.993 L 72.531 214.535 L 21.967 171.629 L 21.967 21.087 L 21.967 21.087 Z " fill="rgb(20,55,86)"/><path d=" M 154.685 70.13 C 166.287 70.13 175.737 60.691 175.737 49.083 C 175.737 37.481 166.288 28.041 154.685 28.041 C 143.083 28.041 133.643 37.48 133.643 49.083 C 133.643 60.691 143.083 70.13 154.685 70.13 Z  M 154.685 38.078 C 160.762 38.078 165.7 43.016 165.7 49.083 C 165.7 55.155 160.762 60.093 154.685 60.093 C 148.618 60.093 143.68 55.155 143.68 49.083 C 143.68 43.016 148.618 38.078 154.685 38.078 Z " fill="rgb(33,116,212)"/><path d=" M 151.137 114.968 C 152.116 115.947 153.4 116.438 154.685 116.438 C 155.97 116.438 157.254 115.946 158.233 114.968 L 189.401 83.81 C 208.541 64.665 208.541 33.517 189.401 14.383 C 180.128 5.109 167.798 0 154.685 0 C 141.572 0 129.242 5.109 119.979 14.377 C 110.695 23.651 105.592 35.976 105.592 49.088 C 105.592 62.2 110.701 74.531 119.979 83.804 L 151.137 114.968 Z  M 127.075 21.468 C 134.447 14.091 144.247 10.031 154.685 10.031 C 165.113 10.031 174.924 14.096 182.305 21.473 C 197.535 36.698 197.535 61.478 182.305 76.709 L 154.685 104.319 L 127.075 76.709 C 119.683 69.327 115.628 59.516 115.628 49.089 C 115.628 38.662 119.683 28.85 127.075 21.468 Z " fill="rgb(20,55,86)"/></g></g><defs><filter id="ZmxOyFfcOqnOKNBDsbcusiJNbNYjcOPT" x="-200%" y="-200%" width="400%" height="400%" filterUnits="objectBoundingBox" color-interpolation-filters="sRGB"><feGaussianBlur xmlns="http://www.w3.org/2000/svg" stdDeviation="0"/></filter></defs><g filter="url(#ZmxOyFfcOqnOKNBDsbcusiJNbNYjcOPT)"><line x1="100" y1="205.4" x2="105" y2="195.4" vector-effect="non-scaling-stroke" stroke-width="5" stroke="rgb(33,116,212)" stroke-linejoin="miter" stroke-linecap="square" stroke-miterlimit="3"/></g><defs><filter id="5SpH2za0BD3sylsRz1RKaHYtRrQk9r1A" x="-200%" y="-200%" width="400%" height="400%" filterUnits="objectBoundingBox" color-interpolation-filters="sRGB"><feGaussianBlur xmlns="http://www.w3.org/2000/svg" stdDeviation="0"/></filter></defs><g filter="url(#5SpH2za0BD3sylsRz1RKaHYtRrQk9r1A)"><line x1="115" y1="171.4" x2="112" y2="179.4" vector-effect="non-scaling-stroke" stroke-width="5" stroke="rgb(33,116,212)" stroke-linejoin="miter" stroke-linecap="square" stroke-miterlimit="3"/></g><defs><filter id="LUEXEl81DZVwzU7xM2RKDo5rymy4m0oC" x="-200%" y="-200%" width="400%" height="400%" filterUnits="objectBoundingBox" color-interpolation-filters="sRGB"><feGaussianBlur xmlns="http://www.w3.org/2000/svg" stdDeviation="0"/></filter></defs><g filter="url(#LUEXEl81DZVwzU7xM2RKDo5rymy4m0oC)"><line x1="123" y1="158.4" x2="130" y2="148.4" vector-effect="non-scaling-stroke" stroke-width="5" stroke="rgb(33,116,212)" stroke-linejoin="miter" stroke-linecap="square" stroke-miterlimit="3"/></g><defs><filter id="gtd59U0cVu14kmjESJUWFF4FFGOycRoT" x="-200%" y="-200%" width="400%" height="400%" filterUnits="objectBoundingBox" color-interpolation-filters="sRGB"><feGaussianBlur xmlns="http://www.w3.org/2000/svg" stdDeviation="0"/></filter></defs><g filter="url(#gtd59U0cVu14kmjESJUWFF4FFGOycRoT)"><line x1="146" y1="123.4" x2="140" y2="132.4" vector-effect="non-scaling-stroke" stroke-width="5" stroke="rgb(33,116,212)" stroke-linejoin="miter" stroke-linecap="square" stroke-miterlimit="3"/></g></g></svg>